<svg width="500" height="500" viewBox="0 0 500 500" fill="none" xmlns="http://www.w3.org/2000/svg">
<rect width="500" height="500" rx="44" fill="black"/>
<path d="M168.078 298.578C168.078 295.391 167.609 292.531 166.672 290C165.734 287.375 164 284.938 161.469 282.688C158.938 280.438 155.281 278.188 150.5 275.938C145.812 273.594 139.625 271.156 131.938 268.625C122.938 265.625 114.266 262.25 105.922 258.5C97.5781 254.656 90.125 250.203 83.5625 245.141C77 239.984 71.7969 233.984 67.9531 227.141C64.1094 220.203 62.1875 212.141 62.1875 202.953C62.1875 194.141 64.1562 186.219 68.0938 179.188C72.0312 172.062 77.5156 166.016 84.5469 161.047C91.6719 155.984 100.016 152.141 109.578 149.516C119.141 146.797 129.594 145.438 140.938 145.438C155.938 145.438 169.156 148.062 180.594 153.312C192.125 158.469 201.125 165.828 207.594 175.391C214.156 184.859 217.438 196.062 217.438 209H168.359C168.359 203.844 167.281 199.297 165.125 195.359C163.062 191.422 159.922 188.328 155.703 186.078C151.484 183.828 146.188 182.703 139.812 182.703C133.625 182.703 128.422 183.641 124.203 185.516C119.984 187.391 116.797 189.922 114.641 193.109C112.484 196.203 111.406 199.625 111.406 203.375C111.406 206.469 112.25 209.281 113.938 211.812C115.719 214.25 118.203 216.547 121.391 218.703C124.672 220.859 128.609 222.922 133.203 224.891C137.891 226.859 143.141 228.781 148.953 230.656C159.828 234.125 169.484 238.016 177.922 242.328C186.453 246.547 193.625 251.375 199.438 256.812C205.344 262.156 209.797 268.25 212.797 275.094C215.891 281.938 217.438 289.672 217.438 298.297C217.438 307.484 215.656 315.641 212.094 322.766C208.531 329.891 203.422 335.938 196.766 340.906C190.109 345.781 182.141 349.484 172.859 352.016C163.578 354.547 153.219 355.812 141.781 355.812C131.281 355.812 120.922 354.5 110.703 351.875C100.578 349.156 91.3906 345.031 83.1406 339.5C74.8906 333.875 68.2812 326.703 63.3125 317.984C58.4375 309.172 56 298.719 56 286.625H105.5C105.5 292.625 106.297 297.688 107.891 301.812C109.484 305.938 111.828 309.266 114.922 311.797C118.016 314.234 121.812 316.016 126.312 317.141C130.812 318.172 135.969 318.688 141.781 318.688C148.062 318.688 153.125 317.797 156.969 316.016C160.812 314.141 163.625 311.703 165.406 308.703C167.188 305.609 168.078 302.234 168.078 298.578ZM380.844 229.531V267.5H275.797V229.531H380.844ZM292.25 148.25V353H242.891V148.25H292.25ZM414.031 148.25V353H364.812V148.25H414.031Z" fill="white"/>
<line x1="47" y1="373" x2="447" y2="373" stroke="white" stroke-width="2"/>
</svg>
